<?xml version="1.0" standalone="no"?>
<!DOCTYPE svg PUBLIC "-//W3C//DTD SVG 20010904//EN"
 "http://www.w3.org/TR/2001/REC-SVG-20010904/DTD/svg10.dtd">
<svg version="1.0" xmlns="http://www.w3.org/2000/svg"
 width="512.000000pt" height="512.000000pt" viewBox="0 0 512.000000 512.000000"
 preserveAspectRatio="xMidYMid meet">
<circle cx="256" cy="256" r="240" fill='#ffff' />
<g transform="translate(0.000000,512.000000) scale(0.100000,-0.100000)"
fill="#f44" stroke="none">
<path d="M2371 5110 c-626 -52 -1179 -307 -1616 -745 -347 -346 -586 -779
-689 -1245 -80 -365 -80 -755 0 -1120 191 -864 846 -1589 1689 -1865 274 -90
511 -128 805 -128 693 0 1315 258 1805 748 407 405 654 908 731 1485 22 167
22 473 0 640 -77 578 -323 1077 -731 1486 -402 403 -913 656 -1475 728 -150
20 -388 27 -519 16z m1495 -901 l32 -31 32 22 31 22 42 -28 c23 -16 69 -56
102 -89 33 -33 73 -79 89 -102 l28 -42 -22 -31 -22 -32 31 -32 c38 -39 41 -79
7 -101 -27 -18 -50 -12 -89 24 l-27 25 -41 -41 -41 -41 23 -31 c22 -30 22 -34
8 -59 -21 -38 -63 -41 -99 -7 -18 17 -33 24 -42 19 -7 -4 -30 -18 -51 -31
l-37 -23 21 -29 c27 -36 20 -73 -16 -89 -34 -16 -29 -17 -74 23 l-40 36 -68
-34 c-64 -33 -92 -60 -450 -449 -210 -228 -388 -420 -395 -426 -11 -9 -31 6
-97 72 l-82 83 426 392 c403 372 428 397 461 463 l35 69 -36 40 c-19 21 -35
43 -35 48 0 17 42 61 59 61 10 0 30 -9 44 -20 l26 -21 26 41 c38 60 38 64 10
90 -14 13 -25 33 -25 45 0 54 61 76 103 37 l22 -20 38 44 39 44 -31 36 c-35
40 -37 51 -15 82 22 32 62 28 100 -9z m-1253 -1012 c66 -24 135 -61 175 -94
l23 -18 -150 -138 c-106 -97 -151 -145 -151 -160 0 -30 246 -277 276 -277 15
0 60 41 144 133 68 72 131 141 141 151 17 18 18 17 55 -40 66 -103 97 -196 98
-295 1 -79 -2 -90 -37 -161 -47 -96 -123 -167 -261 -246 -175 -99 -245 -162
-321 -289 -42 -69 -66 -140 -104 -309 -17 -72 -41 -164 -56 -205 -50 -145
-146 -253 -283 -321 -78 -39 -88 -42 -190 -46 -126 -5 -216 15 -335 74 -332
167 -674 557 -742 846 -8 35 -15 99 -15 144 0 141 43 244 147 354 95 101 173
137 431 201 112 27 227 61 255 75 142 72 240 169 322 319 106 193 209 291 342
325 56 14 163 3 236 -23z"/>
<path d="M2177 2589 c-99 -23 -197 -104 -240 -197 -18 -38 -22 -66 -22 -142 0
-89 2 -99 34 -158 39 -71 79 -110 154 -149 46 -25 63 -28 147 -28 84 0 102 3
151 28 144 70 223 237 184 389 -46 183 -230 299 -408 257z m183 -119 c56 -28
107 -92 125 -155 32 -110 -18 -222 -124 -277 -208 -109 -430 113 -323 322 62
122 204 170 322 110z"/>
<path d="M1502 2008 c-34 -34 -16 -58 211 -285 122 -123 233 -227 246 -230 32
-8 55 8 59 42 3 24 -24 55 -224 256 -234 234 -257 252 -292 217z"/>
<path d="M1330 1832 c-17 -14 -21 -25 -17 -43 3 -13 109 -127 235 -252 247
-246 259 -254 292 -194 l15 27 -240 240 c-133 132 -246 240 -252 240 -6 0 -21
-8 -33 -18z"/>
</g>
</svg>
